{
  "accessors": [
    {
      "bufferView": 2,
      "componentType": 5126,
      "count": 28234,
      "max": [
        3.4318485260009766,
        32.55510330200195,
        8.518640518188477
      ],
      "min": [
        -3.412945032119751,
        -33.568504333496094,
        -18.112489700317383
      ],
      "type": "VEC3"
    },
    {
      "bufferView": 2,
      "byteOffset": 338808,
      "componentType": 5126,
      "count": 28234,
      "max": [
        1.0,
        1.0,
        1.0
      ],
      "min": [
        -1.0,
        -1.0,
        -1.0
      ],
      "type": "VEC3"
    },
    {
      "bufferView": 3,
      "componentType": 5126,
      "count": 28234,
      "max": [
        1.0,
        1.0,
        0.9999978542327881,
        1.0
      ],
      "min": [
        -1.0,
        -1.0,
        -0.9937455654144287,
        -1.0
      ],
      "type": "VEC4"
    },
    {
      "bufferView": 1,
      "componentType": 5126,
      "count": 28234,
      "max": [
        0.9864374995231628,
        0.99609375
      ],
      "min": [
        0.00390625,
        0.00390625
      ],
      "type": "VEC2"
    },
    {
      "bufferView": 0,
      "componentType": 5125,
      "count": 83670,
      "type": "SCALAR"
    },
    {
      "bufferView": 2,
      "byteOffset": 677616,
      "componentType": 5126,
      "count": 41409,
      "max": [
        2.7946724891662598,
        18.998546600341797,
        4.854399681091309
      ],
      "min": [
        -3.4779584407806396,
        -43.98779296875,
        -17.918088912963867
      ],
      "type": "VEC3"
    },
    {
      "bufferView": 2,
      "byteOffset": 1174524,
      "componentType": 5126,
      "count": 41409,
      "max": [
        1.0,
        1.0,
        1.0
      ],
      "min": [
        -1.0,
        -1.0,
        -1.0
      ],
      "type": "VEC3"
    },
    {
      "bufferView": 3,
      "byteOffset": 451744,
      "componentType": 5126,
      "count": 41409,
      "max": [
        1.0,
        1.0,
        0.9997562766075134,
        1.0
      ],
      "min": [
        -1.0,
        -1.0,
        -1.0,
        -1.0
      ],
      "type": "VEC4"
    },
    {
      "bufferView": 1,
      "byteOffset": 225872,
      "componentType": 5126,
      "count": 41409,
      "max": [
        0.9920958280563354,
        0.99609375
      ],
      "min": [
        0.00390625,
        0.00390625
      ],
      "type": "VEC2"
    },
    {
      "bufferView": 0,
      "byteOffset": 334680,
      "componentType": 5125,
      "count": 118728,
      "type": "SCALAR"
    }
  ],
  "asset": {
    "extras": {
      "author": "Requital (https://sketchfab.com/requital_0111)",
      "license": "CC-BY-4.0 (http://creativecommons.org/licenses/by/4.0/)",
      "source": "https://sketchfab.com/3d-models/castom-m4a1-cod-warzone-fan-model-d7200349c7ea44bdab74974b9dd4a829",
      "title": "Castom M4A1 COD Warzone (Fan model)"
    },
    "generator": "Sketchfab-14.87.0",
    "version": "2.0"
  },
  "bufferViews": [
    {
      "buffer": 0,
      "byteLength": 809592,
      "name": "floatBufferViews",
      "target": 34963
    },
    {
      "buffer": 0,
      "byteLength": 557144,
      "byteOffset": 809592,
      "byteStride": 8,
      "name": "floatBufferViews",
      "target": 34962
    },
    {
      "buffer": 0,
      "byteLength": 1671432,
      "byteOffset": 1366736,
      "byteStride": 12,
      "name": "floatBufferViews",
      "target": 34962
    },
    {
      "buffer": 0,
      "byteLength": 1114288,
      "byteOffset": 3038168,
      "byteStride": 16,
      "name": "floatBufferViews",
      "target": 34962
    }
  ],
  "buffers": [
    {
      "byteLength": 4152456,
      "uri": "scene.bin"
    }
  ],
  "images": [
    {
      "uri": "textures/1231_baseColor.png"
    },
    {
      "uri": "textures/1231_metallicRoughness.png"
    },
    {
      "uri": "textures/1231_normal.png"
    },
    {
      "uri": "textures/2132_baseColor.png"
    },
    {
      "uri": "textures/2132_metallicRoughness.png"
    },
    {
      "uri": "textures/2132_normal.png"
    }
  ],
  "materials": [
    {
      "doubleSided": true,
      "name": "1231",
      "normalTexture": {
        "index": 2
      },
      "occlusionTexture": {
        "index": 1
      },
      "pbrMetallicRoughness": {
        "baseColorTexture": {
          "index": 0
        },
        "metallicRoughnessTexture": {
          "index": 1
        }
      }
    },
    {
      "doubleSided": true,
      "name": "2132",
      "normalTexture": {
        "index": 5
      },
      "occlusionTexture": {
        "index": 4
      },
      "pbrMetallicRoughness": {
        "baseColorTexture": {
          "index": 3
        },
        "metallicRoughnessTexture": {
          "index": 4
        }
      }
    }
  ],
  "meshes": [
    {
      "name": "Object_0",
      "primitives": [
        {
          "attributes": {
            "NORMAL": 1,
            "POSITION": 0,
            "TANGENT": 2,
            "TEXCOORD_0": 3
          },
          "indices": 4,
          "material": 0,
          "mode": 4
        }
      ]
    },
    {
      "name": "Object_1",
      "primitives": [
        {
          "attributes": {
            "NORMAL": 6,
            "POSITION": 5,
            "TANGENT": 7,
            "TEXCOORD_0": 8
          },
          "indices": 9,
          "material": 1,
          "mode": 4
        }
      ]
    }
  ],
  "nodes": [
    {
      "children": [
        1
      ],
      "matrix": [
        1.0,
        0.0,
        0.0,
        0.0,
        0.0,
        2.220446049250313e-16,
        -1.0,
        0.0,
        0.0,
        1.0,
        2.220446049250313e-16,
        0.0,
        0.0,
        0.0,
        0.0,
        1.0
      ],
      "name": "Sketchfab_model"
    },
    {
      "children": [
        2,
        3
      ],
      "name": "2.obj.cleaner.materialmerger.gles"
    },
    {
      "mesh": 0,
      "name": "Object_2"
    },
    {
      "mesh": 1,
      "name": "Object_3"
    }
  ],
  "samplers": [
    {
      "magFilter": 9729,
      "minFilter": 9987,
      "wrapS": 10497,
      "wrapT": 10497
    }
  ],
  "scene": 0,
  "scenes": [
    {
      "name": "Sketchfab_Scene",
      "nodes": [
        0
      ]
    }
  ],
  "textures": [
    {
      "sampler": 0,
      "source": 0
    },
    {
      "sampler": 0,
      "source": 1
    },
    {
      "sampler": 0,
      "source": 2
    },
    {
      "sampler": 0,
      "source": 3
    },
    {
      "sampler": 0,
      "source": 4
    },
    {
      "sampler": 0,
      "source": 5
    }
  ]
}
